<svg version="1.1" viewBox="0.0 0.0 512.0 512.0" fill="none" stroke="none" stroke-linecap="square" stroke-miterlimit="10" xmlns:xlink="http://www.w3.org/1999/xlink" xmlns="http://www.w3.org/2000/svg"><clipPath id="p.0"><path d="m0 0l512.0 0l0 512.0l-512.0 0l0 -512.0z" clip-rule="nonzero"/></clipPath><g clip-path="url(#p.0)"><path fill="#000000" fill-opacity="0.0" d="m0 0l512.0 0l0 512.0l-512.0 0z" fill-rule="evenodd"/><path fill="#000000" d="m18.39895 84.24147l0 0c0 -36.36382 29.4787 -65.84252 65.84252 -65.84252l0 0c17.462524 0 34.209824 6.93696 46.557693 19.284826c12.34787 12.34787 19.28482 29.09517 19.28482 46.557693l0 0c0 36.363815 -29.478699 65.842514 -65.842514 65.842514l0 0c-36.36382 0 -65.84252 -29.478699 -65.84252 -65.842514z" fill-rule="evenodd"/><path fill="#000000" d="m190.15779 84.24147l0 0c0 -36.36382 29.478699 -65.84252 65.842514 -65.84252l0 0c17.462524 0 34.20984 6.93696 46.55768 19.284826c12.34787 12.34787 19.284851 29.09517 19.284851 46.557693l0 0c0 36.363815 -29.478699 65.842514 -65.84253 65.842514l0 0c-36.363815 0 -65.842514 -29.478699 -65.842514 -65.842514z" fill-rule="evenodd"/><path fill="#000000" d="m18.39895 256.0003l0 0c0 -36.363815 29.4787 -65.842514 65.84252 -65.842514l0 0c17.462524 0 34.209824 6.9369507 46.557693 19.28482c12.34787 12.34787 19.28482 29.09517 19.28482 46.557693l0 0c0 36.36383 -29.478699 65.84253 -65.842514 65.84253l0 0c-36.36382 0 -65.84252 -29.478699 -65.84252 -65.84253z" fill-rule="evenodd"/><path fill="#000000" d="m190.15779 256.0003l0 0c0 -36.363815 29.478699 -65.842514 65.842514 -65.842514l0 0c17.462524 0 34.20984 6.9369507 46.55768 19.28482c12.34787 12.34787 19.284851 29.09517 19.284851 46.557693l0 0c0 36.36383 -29.478699 65.84253 -65.84253 65.84253l0 0c-36.363815 0 -65.842514 -29.478699 -65.842514 -65.84253z" fill-rule="evenodd"/><path fill="#000000" d="m361.91663 256.0003l0 0c0 -36.363815 29.478699 -65.842514 65.8425 -65.842514l0 0c17.462524 0 34.20984 6.9369507 46.55771 19.28482c12.34787 12.34787 19.28482 29.09517 19.28482 46.557693l0 0c0 36.36383 -29.478699 65.84253 -65.84253 65.84253l0 0c-36.3638 0 -65.8425 -29.478699 -65.8425 -65.84253z" fill-rule="evenodd"/><path fill="#000000" d="m190.15779 427.75912l0 0c0 -36.3638 29.478699 -65.8425 65.842514 -65.8425l0 0c17.462524 0 34.20984 6.9369507 46.55768 19.28482c12.34787 12.34787 19.284851 29.095184 19.284851 46.55768l0 0c0 36.36383 -29.478699 65.84253 -65.84253 65.84253l0 0c-36.363815 0 -65.842514 -29.478699 -65.842514 -65.84253z" fill-rule="evenodd"/><path fill="#000000" d="m361.91663 427.75912l0 0c0 -36.3638 29.478699 -65.8425 65.8425 -65.8425l0 0c17.462524 0 34.20984 6.9369507 46.55771 19.28482c12.34787 12.34787 19.28482 29.095184 19.28482 46.55768l0 0c0 36.36383 -29.478699 65.84253 -65.84253 65.84253l0 0c-36.3638 0 -65.8425 -29.478699 -65.8425 -65.84253z" fill-rule="evenodd"/></g></svg>