<?xml version="1.0" standalone="no"?>
<!DOCTYPE svg PUBLIC "-//W3C//DTD SVG 20010904//EN"
 "http://www.w3.org/TR/2001/REC-SVG-20010904/DTD/svg10.dtd">
<svg version="1.0" xmlns="http://www.w3.org/2000/svg"
 width="503.000000pt" height="503.000000pt" viewBox="0 0 503.000000 503.000000"
 preserveAspectRatio="xMidYMid meet">
<metadata>
Created by potrace 1.14, written by Peter Selinger 2001-2017
</metadata>
<g transform="translate(0.000000,503.000000) scale(0.100000,-0.100000)"
fill="#000000" stroke="none">
<path d="M2457 4994 c-1 -1 -46 -5 -100 -8 -316 -19 -646 -111 -951 -264 -72
-36 -142 -73 -156 -82 -14 -9 -65 -43 -115 -75 -138 -89 -248 -179 -376 -305
-299 -297 -508 -622 -630 -982 -29 -87 -95 -360 -91 -379 1 -4 -3 -33 -8 -65
-18 -106 -23 -177 -23 -324 1 -160 8 -250 34 -415 68 -429 249 -820 533 -1150
167 -194 325 -336 511 -461 182 -121 464 -256 676 -322 89 -28 256 -72 299
-78 19 -3 58 -9 85 -14 28 -5 75 -11 106 -13 30 -2 60 -6 65 -8 21 -11 306
-10 399 0 116 14 163 20 192 25 12 3 43 8 70 12 68 9 66 9 188 43 165 45 286
89 425 153 36 17 74 34 85 39 98 44 304 177 423 272 104 84 268 243 351 341
304 360 468 723 552 1221 33 194 33 541 0 710 -6 27 -13 66 -15 85 -13 82 -77
304 -121 415 -133 340 -340 645 -630 928 -246 240 -624 467 -970 580 -121 40
-331 88 -445 102 -99 12 -356 26 -363 19z m-1376 -1436 c20 -31 -33 -37 -343
-37 -170 -1 -308 3 -308 7 0 4 6 17 14 27 13 20 24 20 322 18 231 -2 310 -6
315 -15z m-435 -250 c-33 -17 -59 -20 -178 -21 -76 0 -141 2 -143 5 -3 3 -3
12 1 21 5 14 26 17 125 19 66 2 145 1 177 -1 l57 -3 -39 -20z m244 2 c0 -17
-7 -20 -52 -19 -29 0 -62 3 -72 6 -18 5 -18 6 5 19 13 7 45 13 72 14 40 0 47
-3 47 -20z m-392 -207 c-3 -15 -17 -18 -87 -21 -101 -3 -123 2 -95 23 13 10
46 14 102 15 74 0 83 -2 80 -17z m3272 -257 c27 0 52 -4 56 -8 3 -4 -3 -6 -15
-3 -11 2 -21 -1 -21 -7 0 -7 -5 -6 -15 2 -8 6 -20 8 -27 4 -24 -15 -47 -11
-45 7 1 10 5 15 10 12 5 -3 31 -6 57 -7z m1050 -8 c0 -15 -16 -17 -172 -15
-120 1 -173 5 -175 14 -6 17 15 19 190 19 141 -1 157 -2 157 -18z"/>
</g>
</svg>
