<?xml version="1.0" standalone="no"?>
<!DOCTYPE svg PUBLIC "-//W3C//DTD SVG 20010904//EN"
 "http://www.w3.org/TR/2001/REC-SVG-20010904/DTD/svg10.dtd">
<svg version="1.0" xmlns="http://www.w3.org/2000/svg"
 width="700.000000pt" height="700.000000pt" viewBox="0 0 700.000000 700.000000"
 preserveAspectRatio="xMidYMid meet">
<metadata>
Created by potrace 1.14, written by Peter Selinger 2001-2017
</metadata>
<g transform="translate(0.000000,700.000000) scale(0.100000,-0.100000)"
fill="#000000" stroke="none">
<path d="M1588 6010 c-221 -37 -422 -184 -523 -380 -59 -117 -79 -200 -79
-330 -1 -135 16 -208 73 -325 180 -364 617 -503 985 -312 112 57 236 181 293
293 126 242 113 519 -32 739 -154 233 -445 361 -717 315z"/>
<path d="M3380 6006 c-171 -37 -316 -123 -419 -248 -241 -295 -217 -717 56
-979 396 -380 1045 -202 1195 328 28 99 30 266 5 363 -82 314 -351 532 -672
545 -63 3 -124 -1 -165 -9z"/>
<path d="M1630 4203 c-251 -29 -469 -183 -576 -408 -52 -110 -69 -184 -68
-315 0 -92 4 -130 23 -190 64 -209 189 -358 376 -450 114 -57 189 -74 320 -74
172 0 299 42 437 147 154 116 255 295 277 492 44 390 -238 745 -631 795 -83
10 -93 10 -158 3z"/>
<path d="M3418 4199 c-89 -12 -217 -60 -293 -109 -73 -47 -177 -153 -223 -226
-47 -74 -90 -200 -102 -299 -44 -352 190 -690 540 -782 87 -23 263 -23 350 0
256 67 458 269 527 527 26 98 23 263 -6 365 -98 349 -436 572 -793 524z"/>
<path d="M5232 4200 c-231 -32 -446 -186 -545 -390 -58 -119 -77 -198 -77
-326 0 -201 66 -361 210 -504 125 -125 240 -184 410 -211 148 -23 329 15 470
97 137 80 260 234 316 399 24 71 28 95 28 210 1 148 -14 217 -70 328 -138 276
-441 438 -742 397z"/>
<path d="M3345 2374 c-33 -8 -103 -35 -155 -60 -79 -39 -108 -61 -180 -133
-72 -71 -95 -102 -133 -181 -62 -126 -80 -200 -80 -330 2 -331 213 -607 533
-696 48 -14 99 -18 195 -18 115 0 139 4 210 28 112 38 208 98 291 180 231 231
277 593 112 874 -18 32 -71 95 -118 142 -98 99 -200 158 -326 190 -93 24 -258
26 -349 4z"/>
<path d="M5150 2370 c-566 -151 -732 -870 -288 -1248 137 -116 326 -180 508
-169 183 10 333 78 466 211 135 135 202 284 211 471 16 325 -182 615 -492 721
-110 38 -293 44 -405 14z"/>
</g>
</svg>
